<svg id="visual" viewBox="0 0 288 496" width="288" height="496" xmlns="http://www.w3.org/2000/svg" xmlns:xlink="http://www.w3.org/1999/xlink" version="1.1"><rect x="0" y="0" width="288" height="496" fill="#ffffff"></rect><path d="M0 328L6.8 331.2C13.7 334.3 27.3 340.7 41 340.5C54.7 340.3 68.3 333.7 82 334.8C95.7 336 109.3 345 123.2 351C137 357 151 360 164.8 358.3C178.7 356.7 192.3 350.3 206 346.2C219.7 342 233.3 340 247 337.5C260.7 335 274.3 332 281.2 330.5L288 329L288 497L281.2 497C274.3 497 260.7 497 247 497C233.3 497 219.7 497 206 497C192.3 497 178.7 497 164.8 497C151 497 137 497 123.2 497C109.3 497 95.7 497 82 497C68.3 497 54.7 497 41 497C27.3 497 13.7 497 6.8 497L0 497Z" fill="#fccde5"></path><path d="M0 376L6.8 377.3C13.7 378.7 27.3 381.3 41 382C54.7 382.7 68.3 381.3 82 380.3C95.7 379.3 109.3 378.7 123.2 376.5C137 374.3 151 370.7 164.8 371.5C178.7 372.3 192.3 377.7 206 381.2C219.7 384.7 233.3 386.3 247 385.3C260.7 384.3 274.3 380.7 281.2 378.8L288 377L288 497L281.2 497C274.3 497 260.7 497 247 497C233.3 497 219.7 497 206 497C192.3 497 178.7 497 164.8 497C151 497 137 497 123.2 497C109.3 497 95.7 497 82 497C68.3 497 54.7 497 41 497C27.3 497 13.7 497 6.8 497L0 497Z" fill="#fcc1dd"></path><path d="M0 384L6.8 384C13.7 384 27.3 384 41 390.2C54.7 396.3 68.3 408.7 82 414.5C95.7 420.3 109.3 419.7 123.2 412.5C137 405.3 151 391.7 164.8 389C178.7 386.3 192.3 394.7 206 397.5C219.7 400.3 233.3 397.7 247 391.3C260.7 385 274.3 375 281.2 370L288 365L288 497L281.2 497C274.3 497 260.7 497 247 497C233.3 497 219.7 497 206 497C192.3 497 178.7 497 164.8 497C151 497 137 497 123.2 497C109.3 497 95.7 497 82 497C68.3 497 54.7 497 41 497C27.3 497 13.7 497 6.8 497L0 497Z" fill="#fcb4d4"></path><path d="M0 397L6.8 400.2C13.7 403.3 27.3 409.7 41 413.3C54.7 417 68.3 418 82 418.3C95.7 418.7 109.3 418.3 123.2 421.5C137 424.7 151 431.3 164.8 431.5C178.7 431.7 192.3 425.3 206 427C219.7 428.7 233.3 438.3 247 437.3C260.7 436.3 274.3 424.7 281.2 418.8L288 413L288 497L281.2 497C274.3 497 260.7 497 247 497C233.3 497 219.7 497 206 497C192.3 497 178.7 497 164.8 497C151 497 137 497 123.2 497C109.3 497 95.7 497 82 497C68.3 497 54.7 497 41 497C27.3 497 13.7 497 6.8 497L0 497Z" fill="#fca7cd"></path><path d="M0 466L6.8 463.2C13.7 460.3 27.3 454.7 41 452.2C54.7 449.7 68.3 450.3 82 451.3C95.7 452.3 109.3 453.7 123.2 453.2C137 452.7 151 450.3 164.8 447.7C178.7 445 192.3 442 206 441.7C219.7 441.3 233.3 443.7 247 443C260.7 442.3 274.3 438.7 281.2 436.8L288 435L288 497L281.2 497C274.3 497 260.7 497 247 497C233.3 497 219.7 497 206 497C192.3 497 178.7 497 164.8 497C151 497 137 497 123.2 497C109.3 497 95.7 497 82 497C68.3 497 54.7 497 41 497C27.3 497 13.7 497 6.8 497L0 497Z" fill="#fc9ac5"></path></svg>