<svg id="visual" viewBox="0 0 900 600" width="900" height="600" xmlns="http://www.w3.org/2000/svg" xmlns:xlink="http://www.w3.org/1999/xlink" version="1.1"><rect x="0" y="0" width="900" height="600" fill="#FFFFFF"></rect><defs><linearGradient id="grad1_0" x1="33.3%" y1="0%" x2="100%" y2="100%"><stop offset="20%" stop-color="#ffffff" stop-opacity="1"></stop><stop offset="80%" stop-color="#ffffff" stop-opacity="1"></stop></linearGradient></defs><defs><linearGradient id="grad2_0" x1="0%" y1="0%" x2="66.7%" y2="100%"><stop offset="20%" stop-color="#ffffff" stop-opacity="1"></stop><stop offset="80%" stop-color="#ffffff" stop-opacity="1"></stop></linearGradient></defs><g transform="translate(900, 0)"><path d="M0 162.2C-16.1 156.7 -32.2 151.2 -47.3 145.5C-62.4 139.8 -76.5 133.9 -91.7 126.2C-106.9 118.6 -123 109.2 -131.3 95.4C-139.5 81.6 -139.8 63.3 -143.6 46.7C-147.4 30 -154.8 15 -162.2 0L0 0Z" fill="#fbb5d7"></path></g><g transform="translate(0, 600)"><path d="M0 -162.2C15.9 -155.3 31.7 -148.3 46 -141.7C60.4 -135.1 73.2 -128.8 88.8 -122.2C104.3 -115.5 122.6 -108.4 131.3 -95.4C140 -82.3 139.1 -63.2 142.7 -46.4C146.2 -29.5 154.2 -14.7 162.2 0L0 0Z" fill="#fbb5d7"></path></g></svg>