<svg id="visual" viewBox="0 0 675 900" width="675" height="900" xmlns="http://www.w3.org/2000/svg" xmlns:xlink="http://www.w3.org/1999/xlink" version="1.1"><rect x="0" y="0" width="675" height="900" fill="#ffffff"></rect><defs><linearGradient id="grad1_0" x1="0%" y1="0%" x2="100%" y2="100%"><stop offset="30%" stop-color="#ffffff" stop-opacity="1"></stop><stop offset="70%" stop-color="#ffffff" stop-opacity="1"></stop></linearGradient></defs><defs><linearGradient id="grad2_0" x1="0%" y1="0%" x2="100%" y2="100%"><stop offset="30%" stop-color="#ffffff" stop-opacity="1"></stop><stop offset="70%" stop-color="#ffffff" stop-opacity="1"></stop></linearGradient></defs><g transform="translate(675, 0)"><path d="M0 196.9C-25.3 193.9 -50.6 190.9 -75.3 181.9C-100.1 172.9 -124.3 157.9 -137.2 137.2C-150.1 116.5 -151.8 90 -159.8 66.2C-167.9 42.4 -182.4 21.2 -196.9 0L0 0Z" fill="#fcb4d4"></path></g><g transform="translate(0, 900)"><path d="M0 -196.9C23.3 -186.3 46.7 -175.7 68.5 -165.4C90.3 -155.1 110.7 -145.1 130.8 -130.8C151 -116.5 170.9 -97.9 181.9 -75.3C192.9 -52.8 194.9 -26.4 196.9 0L0 0Z" fill="#fcb4d4"></path></g></svg>