<svg id="visual" viewBox="0 0 900 600" width="900" height="600" xmlns="http://www.w3.org/2000/svg" xmlns:xlink="http://www.w3.org/1999/xlink" version="1.1"><rect x="0" y="0" width="900" height="600" fill="#FFFFFF"></rect><defs><linearGradient id="grad1_0" x1="33.3%" y1="100%" x2="100%" y2="0%"><stop offset="20%" stop-color="#ffffff" stop-opacity="1"></stop><stop offset="80%" stop-color="#ffffff" stop-opacity="1"></stop></linearGradient></defs><defs><linearGradient id="grad2_0" x1="0%" y1="100%" x2="66.7%" y2="0%"><stop offset="20%" stop-color="#ffffff" stop-opacity="1"></stop><stop offset="80%" stop-color="#ffffff" stop-opacity="1"></stop></linearGradient></defs><g transform="translate(900, 600)"><path d="M-243.4 0C-224.4 -26 -205.5 -52 -194.9 -80.7C-184.4 -109.5 -182.2 -141 -166.9 -166.9C-151.6 -192.8 -123.1 -213 -93.1 -224.8C-63.1 -236.7 -31.6 -240 0 -243.4L0 0Z" fill="#fbb5d7"></path></g><g transform="translate(0, 0)"><path d="M243.4 0C238.3 30.8 233.2 61.7 222.7 92.2C212.1 122.8 196 153.1 172.1 172.1C148.2 191.1 116.5 198.8 86.5 208.8C56.5 218.8 28.3 231.1 0 243.4L0 0Z" fill="#fbb5d7"></path></g></svg>